<mxfile host="app.diagrams.net" modified="2023-12-01T22:35:55.620Z" agent="Mozilla/5.0 (Windows NT 10.0; Win64; x64) AppleWebKit/537.36 (KHTML, like Gecko) Chrome/119.0.0.0 Safari/537.36" etag="c4YGP4G_-_2ewrl3olkg" version="22.1.5" type="device">
  <diagram name="Page-1" id="2YBvvXClWsGukQMizWep">
    <mxGraphModel dx="1325" dy="499" grid="1" gridSize="10" guides="1" tooltips="1" connect="1" arrows="1" fold="1" page="1" pageScale="1" pageWidth="850" pageHeight="1100" math="0" shadow="0">
      <root>
        <mxCell id="0" />
        <mxCell id="1" parent="0" />
        <mxCell id="aM9ryv3xv72pqoxQDRHE-1" value="CKB platform" style="shape=umlLifeline;perimeter=lifelinePerimeter;whiteSpace=wrap;html=1;container=0;dropTarget=0;collapsible=0;recursiveResize=0;outlineConnect=0;portConstraint=eastwest;newEdgeStyle={&quot;edgeStyle&quot;:&quot;elbowEdgeStyle&quot;,&quot;elbow&quot;:&quot;vertical&quot;,&quot;curved&quot;:0,&quot;rounded&quot;:0};" parent="1" vertex="1">
          <mxGeometry x="40" y="40" width="100" height="330" as="geometry" />
        </mxCell>
        <mxCell id="aM9ryv3xv72pqoxQDRHE-2" value="" style="html=1;points=[];perimeter=orthogonalPerimeter;outlineConnect=0;targetShapes=umlLifeline;portConstraint=eastwest;newEdgeStyle={&quot;edgeStyle&quot;:&quot;elbowEdgeStyle&quot;,&quot;elbow&quot;:&quot;vertical&quot;,&quot;curved&quot;:0,&quot;rounded&quot;:0};" parent="aM9ryv3xv72pqoxQDRHE-1" vertex="1">
          <mxGeometry x="45" y="70" width="10" height="30" as="geometry" />
        </mxCell>
        <mxCell id="3rUVXAohg5rPnSxasNTX-16" value="" style="html=1;points=[];perimeter=orthogonalPerimeter;outlineConnect=0;targetShapes=umlLifeline;portConstraint=eastwest;newEdgeStyle={&quot;edgeStyle&quot;:&quot;elbowEdgeStyle&quot;,&quot;elbow&quot;:&quot;vertical&quot;,&quot;curved&quot;:0,&quot;rounded&quot;:0};" vertex="1" parent="aM9ryv3xv72pqoxQDRHE-1">
          <mxGeometry x="45" y="150" width="10" height="160" as="geometry" />
        </mxCell>
        <mxCell id="3rUVXAohg5rPnSxasNTX-24" value="" style="html=1;points=[[0,0,0,0,5],[0,1,0,0,-5],[1,0,0,0,5],[1,1,0,0,-5]];perimeter=orthogonalPerimeter;outlineConnect=0;targetShapes=umlLifeline;portConstraint=eastwest;newEdgeStyle={&quot;curved&quot;:0,&quot;rounded&quot;:0};" vertex="1" parent="aM9ryv3xv72pqoxQDRHE-1">
          <mxGeometry x="50" y="160" width="10" height="20" as="geometry" />
        </mxCell>
        <mxCell id="3rUVXAohg5rPnSxasNTX-25" value="&lt;font style=&quot;font-size: 9px;&quot;&gt;5 : validateSignUpData()&lt;/font&gt;" style="html=1;align=left;spacingLeft=2;endArrow=block;rounded=0;edgeStyle=orthogonalEdgeStyle;curved=0;rounded=0;" edge="1" parent="aM9ryv3xv72pqoxQDRHE-1" target="3rUVXAohg5rPnSxasNTX-24">
          <mxGeometry relative="1" as="geometry">
            <mxPoint x="55" y="150" as="sourcePoint" />
            <Array as="points">
              <mxPoint x="85" y="150" />
              <mxPoint x="85" y="160" />
            </Array>
          </mxGeometry>
        </mxCell>
        <mxCell id="3rUVXAohg5rPnSxasNTX-1" value="&lt;font style=&quot;font-size: 9px;&quot;&gt;Unregistered student&lt;/font&gt;" style="shape=umlActor;verticalLabelPosition=bottom;verticalAlign=top;html=1;outlineConnect=0;" vertex="1" parent="1">
          <mxGeometry x="-100" y="40" width="20" height="40" as="geometry" />
        </mxCell>
        <mxCell id="3rUVXAohg5rPnSxasNTX-3" value="" style="endArrow=none;dashed=1;html=1;rounded=0;" edge="1" parent="1" source="3rUVXAohg5rPnSxasNTX-10">
          <mxGeometry width="50" height="50" relative="1" as="geometry">
            <mxPoint x="-90" y="350" as="sourcePoint" />
            <mxPoint x="-90" y="100" as="targetPoint" />
          </mxGeometry>
        </mxCell>
        <mxCell id="3rUVXAohg5rPnSxasNTX-11" value="" style="endArrow=none;dashed=1;html=1;rounded=0;" edge="1" parent="1" target="3rUVXAohg5rPnSxasNTX-10">
          <mxGeometry width="50" height="50" relative="1" as="geometry">
            <mxPoint x="-90" y="370" as="sourcePoint" />
            <mxPoint x="-90" y="100" as="targetPoint" />
          </mxGeometry>
        </mxCell>
        <mxCell id="3rUVXAohg5rPnSxasNTX-10" value="" style="html=1;points=[];perimeter=orthogonalPerimeter;outlineConnect=0;targetShapes=umlLifeline;portConstraint=eastwest;newEdgeStyle={&quot;edgeStyle&quot;:&quot;elbowEdgeStyle&quot;,&quot;elbow&quot;:&quot;vertical&quot;,&quot;curved&quot;:0,&quot;rounded&quot;:0};" vertex="1" parent="1">
          <mxGeometry x="-95" y="110" width="10" height="240" as="geometry" />
        </mxCell>
        <mxCell id="3rUVXAohg5rPnSxasNTX-12" value="&lt;font style=&quot;font-size: 9px;&quot;&gt;1 : open_platform&lt;/font&gt;" style="html=1;verticalAlign=bottom;endArrow=block;edgeStyle=elbowEdgeStyle;elbow=vertical;curved=0;rounded=0;" edge="1" parent="1" source="3rUVXAohg5rPnSxasNTX-10" target="aM9ryv3xv72pqoxQDRHE-2">
          <mxGeometry relative="1" as="geometry">
            <mxPoint x="-50" y="110" as="sourcePoint" />
            <Array as="points">
              <mxPoint x="30" y="110" />
            </Array>
            <mxPoint x="115" y="110" as="targetPoint" />
          </mxGeometry>
        </mxCell>
        <mxCell id="3rUVXAohg5rPnSxasNTX-8" value="&lt;font style=&quot;font-size: 9px;&quot;&gt;2 : showPage(homepage)&lt;/font&gt;" style="html=1;verticalAlign=bottom;endArrow=openThin;dashed=1;endSize=8;edgeStyle=elbowEdgeStyle;elbow=vertical;curved=0;rounded=0;endFill=0;" edge="1" parent="1" source="aM9ryv3xv72pqoxQDRHE-2" target="3rUVXAohg5rPnSxasNTX-10">
          <mxGeometry relative="1" as="geometry">
            <mxPoint x="-50" y="140" as="targetPoint" />
            <Array as="points">
              <mxPoint x="5" y="140" />
            </Array>
            <mxPoint x="80" y="140" as="sourcePoint" />
          </mxGeometry>
        </mxCell>
        <mxCell id="3rUVXAohg5rPnSxasNTX-18" value="" style="html=1;points=[[0,0,0,0,5],[0,1,0,0,-5],[1,0,0,0,5],[1,1,0,0,-5]];perimeter=orthogonalPerimeter;outlineConnect=0;targetShapes=umlLifeline;portConstraint=eastwest;newEdgeStyle={&quot;curved&quot;:0,&quot;rounded&quot;:0};" vertex="1" parent="1">
          <mxGeometry x="-90" y="160" width="10" height="30" as="geometry" />
        </mxCell>
        <mxCell id="3rUVXAohg5rPnSxasNTX-20" value="&lt;font style=&quot;font-size: 9px;&quot;&gt;4 : send(SignUpCredentials)&lt;/font&gt;" style="html=1;verticalAlign=bottom;endArrow=block;edgeStyle=elbowEdgeStyle;elbow=vertical;curved=0;rounded=0;" edge="1" parent="1" target="3rUVXAohg5rPnSxasNTX-16">
          <mxGeometry relative="1" as="geometry">
            <mxPoint x="-80" y="190" as="sourcePoint" />
            <Array as="points">
              <mxPoint x="30" y="190" />
            </Array>
            <mxPoint x="90" y="200" as="targetPoint" />
          </mxGeometry>
        </mxCell>
        <mxCell id="3rUVXAohg5rPnSxasNTX-26" value="&lt;font style=&quot;font-size: 9px;&quot;&gt;6 : displayOutcome(confirmation)&lt;/font&gt;" style="html=1;verticalAlign=bottom;endArrow=openThin;dashed=1;endSize=8;edgeStyle=elbowEdgeStyle;elbow=vertical;curved=0;rounded=0;endFill=0;" edge="1" parent="1" source="3rUVXAohg5rPnSxasNTX-16" target="3rUVXAohg5rPnSxasNTX-10">
          <mxGeometry relative="1" as="geometry">
            <mxPoint x="-80" y="230" as="targetPoint" />
            <Array as="points">
              <mxPoint x="10" y="260" />
            </Array>
            <mxPoint x="90" y="230" as="sourcePoint" />
          </mxGeometry>
        </mxCell>
        <mxCell id="3rUVXAohg5rPnSxasNTX-27" value="&lt;b&gt;alt &lt;/b&gt;outcome == true" style="shape=umlFrame;whiteSpace=wrap;html=1;pointerEvents=0;width=120;height=15;fontSize=11;" vertex="1" parent="1">
          <mxGeometry x="-160" y="230" width="490" height="130" as="geometry" />
        </mxCell>
        <mxCell id="3rUVXAohg5rPnSxasNTX-28" value="[then]" style="text;html=1;strokeColor=none;fillColor=none;align=center;verticalAlign=middle;whiteSpace=wrap;rounded=0;fontSize=10;" vertex="1" parent="1">
          <mxGeometry x="-150" y="250" width="35" height="10" as="geometry" />
        </mxCell>
        <mxCell id="3rUVXAohg5rPnSxasNTX-31" value="Email provider" style="shape=umlLifeline;perimeter=lifelinePerimeter;whiteSpace=wrap;html=1;container=0;dropTarget=0;collapsible=0;recursiveResize=0;outlineConnect=0;portConstraint=eastwest;newEdgeStyle={&quot;edgeStyle&quot;:&quot;elbowEdgeStyle&quot;,&quot;elbow&quot;:&quot;vertical&quot;,&quot;curved&quot;:0,&quot;rounded&quot;:0};" vertex="1" parent="1">
          <mxGeometry x="220" y="40" width="100" height="330" as="geometry" />
        </mxCell>
        <mxCell id="3rUVXAohg5rPnSxasNTX-37" value="" style="html=1;points=[];perimeter=orthogonalPerimeter;outlineConnect=0;targetShapes=umlLifeline;portConstraint=eastwest;newEdgeStyle={&quot;edgeStyle&quot;:&quot;elbowEdgeStyle&quot;,&quot;elbow&quot;:&quot;vertical&quot;,&quot;curved&quot;:0,&quot;rounded&quot;:0};" vertex="1" parent="3rUVXAohg5rPnSxasNTX-31">
          <mxGeometry x="45" y="230" width="10" height="20" as="geometry" />
        </mxCell>
        <mxCell id="3rUVXAohg5rPnSxasNTX-36" value="&lt;font style=&quot;font-size: 9px;&quot;&gt;7 : sendEmail(confirmEmail)&lt;/font&gt;" style="html=1;verticalAlign=bottom;endArrow=block;edgeStyle=elbowEdgeStyle;elbow=vertical;curved=0;rounded=0;" edge="1" parent="1" source="3rUVXAohg5rPnSxasNTX-16" target="3rUVXAohg5rPnSxasNTX-37">
          <mxGeometry relative="1" as="geometry">
            <mxPoint x="100" y="270" as="sourcePoint" />
            <Array as="points">
              <mxPoint x="215" y="270" />
            </Array>
            <mxPoint x="275" y="270" as="targetPoint" />
          </mxGeometry>
        </mxCell>
        <mxCell id="3rUVXAohg5rPnSxasNTX-38" value="&lt;font style=&quot;font-size: 9px;&quot;&gt;8 : receiveConfirmation&lt;/font&gt;" style="html=1;verticalAlign=bottom;endArrow=openThin;dashed=1;endSize=8;edgeStyle=elbowEdgeStyle;elbow=vertical;curved=0;rounded=0;endFill=0;" edge="1" parent="1" source="3rUVXAohg5rPnSxasNTX-37" target="3rUVXAohg5rPnSxasNTX-16">
          <mxGeometry relative="1" as="geometry">
            <mxPoint x="100" y="290" as="targetPoint" />
            <Array as="points">
              <mxPoint x="190" y="290" />
            </Array>
            <mxPoint x="270" y="290" as="sourcePoint" />
          </mxGeometry>
        </mxCell>
        <mxCell id="3rUVXAohg5rPnSxasNTX-39" value="" style="endArrow=none;dashed=1;html=1;rounded=0;entryX=1.001;entryY=0.404;entryDx=0;entryDy=0;entryPerimeter=0;exitX=0.001;exitY=0.409;exitDx=0;exitDy=0;exitPerimeter=0;" edge="1" parent="1">
          <mxGeometry width="50" height="50" relative="1" as="geometry">
            <mxPoint x="-160" y="305.37" as="sourcePoint" />
            <mxPoint x="329.9999999999998" y="304.62" as="targetPoint" />
          </mxGeometry>
        </mxCell>
        <mxCell id="3rUVXAohg5rPnSxasNTX-41" value="[else]" style="text;html=1;strokeColor=none;fillColor=none;align=center;verticalAlign=middle;whiteSpace=wrap;rounded=0;fontSize=10;" vertex="1" parent="1">
          <mxGeometry x="-150" y="320" width="35" height="10" as="geometry" />
        </mxCell>
        <mxCell id="3rUVXAohg5rPnSxasNTX-43" value="&lt;font style=&quot;font-size: 9px;&quot;&gt;9 : displayOutcome(error)&lt;/font&gt;" style="html=1;verticalAlign=bottom;endArrow=openThin;dashed=1;endSize=8;edgeStyle=elbowEdgeStyle;elbow=vertical;curved=0;rounded=0;endFill=0;" edge="1" parent="1" source="3rUVXAohg5rPnSxasNTX-16" target="3rUVXAohg5rPnSxasNTX-10">
          <mxGeometry relative="1" as="geometry">
            <mxPoint x="-85" y="330" as="targetPoint" />
            <Array as="points">
              <mxPoint x="10" y="330" />
            </Array>
            <mxPoint x="85" y="330" as="sourcePoint" />
          </mxGeometry>
        </mxCell>
        <mxCell id="3rUVXAohg5rPnSxasNTX-45" value="&lt;font style=&quot;font-size: 9px;&quot;&gt;3 : fillSignUpForm(data)&lt;/font&gt;" style="html=1;align=left;spacingLeft=2;endArrow=block;rounded=0;edgeStyle=orthogonalEdgeStyle;curved=0;rounded=0;" edge="1" target="3rUVXAohg5rPnSxasNTX-18" parent="1">
          <mxGeometry relative="1" as="geometry">
            <mxPoint x="-80" y="160" as="sourcePoint" />
            <Array as="points">
              <mxPoint x="-50" y="160" />
              <mxPoint x="-50" y="170" />
            </Array>
            <mxPoint x="-75" y="190" as="targetPoint" />
          </mxGeometry>
        </mxCell>
        <mxCell id="3rUVXAohg5rPnSxasNTX-46" value="&lt;p style=&quot;line-height: 120%;&quot;&gt;&lt;font style=&quot;font-size: 10px;&quot;&gt;&lt;b&gt;loop&lt;/b&gt;: outcome == false&lt;/font&gt;&lt;/p&gt;" style="shape=umlFrame;whiteSpace=wrap;html=1;pointerEvents=0;width=70;height=40;verticalAlign=middle;horizontal=1;labelPosition=center;verticalLabelPosition=middle;align=center;" vertex="1" parent="1">
          <mxGeometry x="-180" y="150" width="520" height="220" as="geometry" />
        </mxCell>
      </root>
    </mxGraphModel>
  </diagram>
</mxfile>
